<?xml version="1.0" standalone="no"?>
<!DOCTYPE svg PUBLIC "-//W3C//DTD SVG 20010904//EN"
 "http://www.w3.org/TR/2001/REC-SVG-20010904/DTD/svg10.dtd">
<svg version="1.0" xmlns="http://www.w3.org/2000/svg"
 width="260.000000pt" height="260.000000pt" viewBox="0 0 260.000000 260.000000"
 preserveAspectRatio="xMidYMid meet">
<metadata>
Created by potrace 1.11, written by Peter Selinger 2001-2013
</metadata>
<g transform="translate(0.000000,260.000000) scale(0.100000,-0.100000)"
fill="#000000" stroke="none">
<path d="M2130 2249 c-106 -21 -210 -102 -261 -206 -21 -42 -24 -62 -24 -163
0 -110 1 -118 32 -175 33 -63 85 -119 143 -154 l35 -21 -185 0 -185 1 38 20
c139 73 138 280 -2 343 l-40 18 34 33 c55 51 70 120 41 188 -32 77 -108 107
-266 107 l-90 0 0 -356 c0 -268 -3 -355 -12 -352 -6 2 -85 161 -174 353 -89
192 -166 351 -171 352 -5 2 -83 -156 -174 -349 l-166 -353 -55 -3 c-63 -3 -48
-22 -128 171 -34 82 -61 134 -78 147 -22 18 -40 20 -172 20 -134 0 -150 -2
-174 -21 -55 -43 -69 -103 -37 -152 37 -57 53 -62 225 -67 l160 -5 73 -190
c249 -642 310 -792 330 -813 l22 -22 512 0 511 0 25 28 c24 25 208 459 303
711 36 94 41 117 31 137 -6 13 -9 24 -8 24 2 0 30 5 63 11 69 12 160 58 200
100 27 28 27 29 9 49 -24 27 -30 26 -80 -16 -157 -128 -396 -86 -490 87 -40
75 -46 179 -15 263 75 197 343 261 507 121 48 -41 54 -42 78 -15 18 20 18 21
-9 49 -81 84 -240 127 -376 100z m-479 -102 c47 -31 59 -80 33 -132 -26 -52
-72 -75 -151 -75 l-63 0 0 115 0 115 74 0 c59 0 79 -4 107 -23z m-547 -188
c31 -67 55 -123 53 -126 -2 -2 -57 -2 -121 -1 l-116 3 58 122 c31 68 60 123
63 123 3 0 32 -55 63 -121z m566 -111 c59 -31 85 -68 84 -122 -2 -93 -65 -136
-198 -136 l-86 0 0 140 0 140 78 0 c61 0 87 -5 122 -22z m-1257 -95 l15 -38
-136 -3 c-123 -2 -138 -1 -155 16 -16 16 -17 23 -8 41 11 20 19 21 140 21
l129 0 15 -37z m835 -102 c29 -59 52 -111 52 -115 0 -3 -117 -6 -261 -6 -143
0 -259 4 -257 8 2 5 25 57 53 115 l49 107 156 0 157 0 51 -109z m922 -214 c0
-23 -284 -722 -302 -744 -8 -10 -118 -13 -489 -13 -457 0 -479 1 -488 19 -11
19 -291 739 -291 747 0 2 353 4 785 4 648 0 785 -2 785 -13z"/>
<path d="M784 496 c-139 -44 -204 -202 -138 -335 83 -166 320 -171 414 -8 75
132 8 299 -138 343 -55 17 -84 17 -138 0z m143 -77 c121 -59 123 -236 3 -296
-56 -29 -96 -29 -151 0 -119 63 -117 236 3 296 54 26 90 27 145 0z"/>
<path d="M820 310 c-11 -11 -20 -29 -20 -40 0 -23 33 -60 55 -60 22 0 55 37
55 60 0 23 -33 60 -55 60 -8 0 -24 -9 -35 -20z"/>
<path d="M1874 501 c-85 -22 -155 -96 -175 -185 -22 -100 31 -210 125 -258 57
-30 156 -30 211 -1 86 45 129 117 129 213 0 70 -16 114 -63 163 -53 58 -152
87 -227 68z m119 -75 c72 -30 117 -114 103 -192 -9 -45 -67 -109 -113 -125
-74 -24 -163 13 -199 83 -20 40 -21 115 -1 154 39 76 133 112 210 80z"/>
<path d="M1902 314 c-51 -36 -8 -117 51 -95 47 18 47 78 1 99 -31 15 -25 15
-52 -4z"/>
</g>
</svg>
